<?xml version="1.0" standalone="no"?>
<!DOCTYPE svg PUBLIC "-//W3C//DTD SVG 20010904//EN"
 "http://www.w3.org/TR/2001/REC-SVG-20010904/DTD/svg10.dtd">
<svg version="1.0" xmlns="http://www.w3.org/2000/svg"
 width="400.000000pt" height="400.000000pt" viewBox="0 0 400.000000 400.000000"
 preserveAspectRatio="xMidYMid meet">
<metadata>
Created by potrace 1.11, written by Peter Selinger 2001-2013
</metadata>
<g transform="translate(0.000000,400.000000) scale(0.100000,-0.100000)"
fill="#000000" stroke="none">
<path d="M1248 3483 c-27 -17 -48 -52 -48 -79 0 -52 51 -104 101 -104 30 0 76
-30 88 -57 15 -33 15 -1053 0 -1086 -12 -27 -58 -57 -88 -57 -33 0 -67 -20
-84 -50 -30 -50 -16 -104 33 -134 26 -15 80 -16 577 -16 542 1 549 1 619 24
158 51 272 163 330 326 20 57 27 186 13 253 -26 123 -110 244 -220 315 -35 23
-56 43 -50 47 6 3 21 25 33 48 59 115 60 244 4 360 -43 89 -101 146 -194 190
l-67 32 -510 2 c-463 3 -512 1 -537 -14z m855 -212 c114 -70 126 -229 26 -321
-44 -40 -84 -50 -201 -50 -74 0 -100 4 -112 16 -13 13 -16 44 -16 184 0 214
-8 203 149 198 100 -3 121 -7 154 -27z m104 -593 c65 -24 137 -92 166 -156 48
-108 24 -245 -59 -329 -76 -77 -112 -87 -310 -91 -149 -3 -173 -1 -187 13 -15
14 -17 49 -17 285 0 234 2 271 16 285 26 25 319 20 391 -7z"/>
<path d="M919 1540 c-90 -22 -177 -60 -201 -86 -27 -31 -30 -71 -7 -88 22 -15
48 -11 94 14 65 36 161 60 259 65 117 5 186 -28 186 -91 0 -55 -62 -93 -173
-107 -49 -6 -67 -22 -67 -62 0 -36 13 -46 67 -50 37 -2 82 -29 84 -50 5 -53
-5 -72 -51 -95 -39 -20 -148 -35 -180 -25 -13 4 -17 13 -15 28 3 12 6 38 9 57
3 19 11 69 20 110 21 103 23 112 35 155 14 53 1 75 -47 75 -64 0 -77 -18 -106
-137 -13 -60 -28 -130 -32 -158 -3 -27 -8 -59 -11 -70 -2 -11 -6 -58 -10 -104
-5 -74 -4 -86 12 -98 27 -19 81 -16 102 6 14 14 39 20 114 24 165 10 273 68
299 161 15 56 6 98 -31 141 l-29 33 25 6 c36 9 96 65 115 109 28 62 12 145
-37 189 -10 10 -41 27 -68 40 -69 31 -246 35 -356 8z"/>
<path d="M2278 1540 c-98 -24 -195 -73 -210 -105 -13 -29 -4 -71 18 -79 9 -3
50 9 92 28 129 56 263 76 357 53 42 -11 85 -47 85 -73 0 -52 -54 -96 -135
-109 -80 -13 -103 -24 -108 -53 -8 -42 7 -59 61 -66 81 -10 114 -61 76 -115
-24 -33 -77 -52 -161 -57 -66 -3 -73 -2 -73 15 0 33 29 195 52 284 26 104 21
120 -40 125 -30 2 -45 -2 -59 -17 -19 -21 -48 -123 -67 -241 -2 -8 -15 -15
-32 -16 -16 -1 -41 -4 -55 -7 -22 -4 -27 0 -39 31 -43 125 -189 144 -278 37
-33 -40 -52 -95 -52 -147 0 -35 -24 -68 -49 -68 -12 0 -11 46 3 110 18 78 18
117 1 133 -9 9 -27 17 -39 17 -13 0 -29 6 -35 14 -27 32 -138 -7 -185 -66 -36
-46 -40 -52 -45 -68 -25 -91 -27 -107 -19 -148 18 -97 98 -134 183 -83 l38 22
23 -22 c32 -30 86 -28 132 5 l36 26 23 -21 c28 -27 95 -40 142 -27 41 11 108
76 117 113 6 25 14 29 77 40 36 6 37 5 32 -18 -4 -13 -7 -53 -8 -90 -2 -51 2
-70 13 -77 25 -16 76 -11 101 9 18 13 48 20 114 24 189 12 305 90 307 205 0
43 -23 96 -47 105 -24 10 -18 23 16 37 72 30 123 106 118 177 -5 76 -50 130
-134 164 -53 21 -259 20 -347 -1z m-735 -466 c-17 -83 -39 -126 -61 -122 -37
7 -22 103 24 158 43 50 53 40 37 -36z m347 27 c0 -15 9 -40 21 -55 25 -32 20
-70 -12 -87 -18 -9 -25 -7 -42 10 -28 27 -29 112 -2 141 25 28 35 25 35 -9z"/>
<path d="M3165 1396 c-48 -48 -21 -117 47 -119 111 -3 131 133 20 141 -34 3
-47 -2 -67 -22z"/>
<path d="M2798 1234 c-30 -16 -38 -33 -58 -129 -6 -27 -11 -77 -11 -111 -2
-132 78 -190 156 -114 24 23 35 29 35 19 0 -41 66 -64 125 -44 28 10 43 11 52
4 18 -15 83 -14 98 3 7 7 16 42 20 78 4 36 14 103 22 150 15 81 19 137 12 145
-6 5 -31 7 -65 6 -26 -1 -34 -7 -45 -33 -16 -38 -14 -32 -31 -125 -13 -74 -43
-123 -74 -123 -18 0 -14 48 15 170 10 41 16 81 13 88 -7 21 -44 30 -73 20 -23
-8 -33 -25 -64 -114 -35 -98 -55 -134 -74 -134 -9 0 10 130 27 192 8 28 7 40
-3 48 -21 17 -49 19 -77 4z"/>
<path d="M1518 133 c7 -3 16 -2 19 1 4 3 -2 6 -13 5 -11 0 -14 -3 -6 -6z"/>
<path d="M2308 133 c7 -3 16 -2 19 1 4 3 -2 6 -13 5 -11 0 -14 -3 -6 -6z"/>
<path d="M2438 133 c7 -3 16 -2 19 1 4 3 -2 6 -13 5 -11 0 -14 -3 -6 -6z"/>
<path d="M2995 130 c-3 -6 1 -7 9 -4 18 7 21 14 7 14 -6 0 -13 -4 -16 -10z"/>
<path d="M3210 136 c0 -2 7 -7 16 -10 8 -3 12 -2 9 4 -6 10 -25 14 -25 6z"/>
<path d="M1253 111 c0 -11 5 -18 9 -15 4 3 5 11 1 19 -7 21 -12 19 -10 -4z"/>
<path d="M1355 121 c-3 -5 -2 -12 3 -15 5 -3 9 1 9 9 0 17 -3 19 -12 6z"/>
<path d="M668 108 c5 -5 16 -8 23 -6 8 3 3 7 -10 11 -17 4 -21 3 -13 -5z"/>
<path d="M527 99 c7 -7 15 -10 18 -7 3 3 -2 9 -12 12 -14 6 -15 5 -6 -5z"/>
<path d="M1996 102 c-3 -5 1 -9 9 -9 8 0 12 4 9 9 -3 4 -7 8 -9 8 -2 0 -6 -4
-9 -8z"/>
<path d="M2140 106 c0 -2 9 -6 20 -9 11 -3 18 -1 14 4 -5 9 -34 13 -34 5z"/>
<path d="M2368 103 c7 -3 16 -2 19 1 4 3 -2 6 -13 5 -11 0 -14 -3 -6 -6z"/>
<path d="M868 93 c7 -3 16 -2 19 1 4 3 -2 6 -13 5 -11 0 -14 -3 -6 -6z"/>
</g>
</svg>
